<svg width="24" height="24" viewBox="0 0 24 24" fill="none" xmlns="http://www.w3.org/2000/svg">
<g clip-path="url(#clip0_16_80)">
<path d="M9.59998 10.3936C9.59998 9.75707 9.85283 9.14662 10.3029 8.69654C10.753 8.24645 11.3635 7.99359 12 7.99359C12.6365 7.99359 13.2469 8.24645 13.697 8.69654C14.1471 9.14662 14.4 9.75707 14.4 10.3936C14.4 11.0301 14.1471 11.6406 13.697 12.0906C13.2469 12.5407 12.6365 12.7936 12 12.7936C11.3635 12.7936 10.753 12.5407 10.3029 12.0906C9.85283 11.6406 9.59998 11.0301 9.59998 10.3936Z" fill="black"/>
<path fill-rule="evenodd" clip-rule="evenodd" d="M1.59998 10.3936C1.60125 7.63633 2.69757 4.99244 4.64786 3.04336C6.59814 1.09427 9.2427 -0.000424431 12 1.23445e-07C17.7424 1.23445e-07 22.4 4.6544 22.4 10.3936C22.4 14.672 20.2592 18.0624 17.9648 20.3536C16.9505 21.3722 15.8139 22.2612 14.5808 23C14.0656 23.304 13.584 23.544 13.1648 23.7072C12.7696 23.864 12.3552 23.9856 12 23.9856C11.6448 23.9856 11.2304 23.864 10.8352 23.7072C10.3458 23.508 9.87238 23.2716 9.41918 23C8.18613 22.2611 7.04945 21.3722 6.03518 20.3536C3.74078 18.0624 1.59998 14.672 1.59998 10.3936ZM12 6.3952C10.9391 6.3952 9.92169 6.81663 9.17155 7.56677C8.4214 8.31692 7.99998 9.33433 7.99998 10.3952C7.99998 11.4561 8.4214 12.4735 9.17155 13.2236C9.92169 13.9738 10.9391 14.3952 12 14.3952C13.0608 14.3952 14.0783 13.9738 14.8284 13.2236C15.5785 12.4735 16 11.4561 16 10.3952C16 9.33433 15.5785 8.31692 14.8284 7.56677C14.0783 6.81663 13.0608 6.3952 12 6.3952Z" fill="black"/>
</g>
<defs>
<clipPath id="clip0_16_80">
<rect width="24" height="24" fill="white"/>
</clipPath>
</defs>
</svg>
