<svg width="24" height="24" viewBox="0 0 24 24" fill="none" xmlns="http://www.w3.org/2000/svg">
<path d="M20.25 9.99999C20.25 9.83584 20.2176 9.67329 20.1548 9.52163C20.092 9.36998 19.9999 9.23218 19.8839 9.11611C19.7678 9.00003 19.63 8.90796 19.4783 8.84514C19.3267 8.78232 19.1641 8.74999 19 8.74999C18.8358 8.74999 18.6733 8.78232 18.5216 8.84514C18.37 8.90796 18.2322 9.00003 18.1161 9.11611C18 9.23218 17.9079 9.36998 17.8451 9.52163C17.7823 9.67329 17.75 9.83584 17.75 9.99999H20.25ZM6.24998 9.99999C6.24998 9.66847 6.11829 9.35053 5.88387 9.11611C5.64944 8.88169 5.3315 8.74999 4.99998 8.74999C4.66846 8.74999 4.35052 8.88169 4.1161 9.11611C3.88168 9.35053 3.74998 9.66847 3.74998 9.99999H6.24998ZM20.116 12.884C20.3504 13.1184 20.6684 13.2502 21 13.2502C21.3315 13.2502 21.6495 13.1184 21.884 12.884C22.1184 12.6495 22.2501 12.3316 22.2501 12C22.2501 11.6684 22.1184 11.3504 21.884 11.116L20.116 12.884ZM12 2.99999L12.884 2.11599C12.7679 1.99988 12.6301 1.90778 12.4784 1.84494C12.3267 1.7821 12.1642 1.74976 12 1.74976C11.8358 1.74976 11.6732 1.7821 11.5216 1.84494C11.3699 1.90778 11.2321 1.99988 11.116 2.11599L12 2.99999ZM2.11598 11.116C1.88153 11.3504 1.74982 11.6684 1.74982 12C1.74982 12.3316 1.88153 12.6495 2.11598 12.884C2.35043 13.1184 2.66842 13.2502 2.99998 13.2502C3.33155 13.2502 3.64953 13.1184 3.88398 12.884L2.11598 11.116ZM6.99998 22.25H17V19.75H6.99998V22.25ZM20.25 19V9.99999H17.75V19H20.25ZM6.24998 19V9.99999H3.74998V19H6.24998ZM21.884 11.116L12.884 2.11599L11.116 3.88399L20.116 12.884L21.884 11.116ZM11.116 2.11599L2.11598 11.116L3.88398 12.884L12.884 3.88399L11.116 2.11599ZM17 22.25C17.8619 22.25 18.6886 21.9076 19.2981 21.2981C19.9076 20.6886 20.25 19.8619 20.25 19H17.75C17.75 19.1989 17.671 19.3897 17.5303 19.5303C17.3897 19.671 17.1989 19.75 17 19.75V22.25ZM6.99998 19.75C6.80107 19.75 6.6103 19.671 6.46965 19.5303C6.329 19.3897 6.24998 19.1989 6.24998 19H3.74998C3.74998 19.8619 4.09239 20.6886 4.70188 21.2981C5.31138 21.9076 6.13803 22.25 6.99998 22.25V19.75Z" fill="white"/>
</svg>
