<svg width="24" height="24" viewBox="0 0 24 24" fill="none" xmlns="http://www.w3.org/2000/svg">
<path fill-rule="evenodd" clip-rule="evenodd" d="M14.279 2.152C13.909 2 13.439 2 12.5 2C11.561 2 11.092 2 10.721 2.152C10.2285 2.35421 9.83639 2.74377 9.63101 3.235C9.53701 3.458 9.50101 3.719 9.48601 4.098C9.47934 4.3726 9.40274 4.64097 9.26346 4.87772C9.12417 5.11447 8.9268 5.31178 8.69001 5.451C8.44875 5.5851 8.17755 5.65615 7.90154 5.65754C7.62552 5.65894 7.35361 5.59065 7.11101 5.459C6.77301 5.281 6.52801 5.183 6.28601 5.151C5.75656 5.08148 5.22108 5.2238 4.79601 5.547C4.47801 5.789 4.24301 6.193 3.77401 7C3.30401 7.807 3.07001 8.21 3.01701 8.605C2.94701 9.131 3.09101 9.663 3.41701 10.084C3.56501 10.276 3.77401 10.437 4.09701 10.639C4.57401 10.936 4.88001 11.442 4.88001 12C4.88001 12.558 4.57401 13.064 4.09801 13.36C3.77401 13.563 3.56501 13.724 3.41601 13.916C3.25509 14.1239 3.13698 14.3617 3.06849 14.6156C3.00001 14.8694 2.98251 15.1343 3.01701 15.395C3.07001 15.789 3.30401 16.193 3.77401 17C4.24401 17.807 4.47801 18.21 4.79601 18.453C5.22001 18.776 5.75601 18.918 6.28601 18.849C6.52801 18.817 6.77301 18.719 7.11101 18.541C7.35374 18.4092 7.62583 18.3408 7.90204 18.3422C8.17825 18.3436 8.44963 18.4147 8.69101 18.549C9.17701 18.829 9.46501 19.344 9.48601 19.902C9.50101 20.282 9.53701 20.542 9.63101 20.765C9.83501 21.255 10.227 21.645 10.721 21.848C11.091 22 11.561 22 12.5 22C13.439 22 13.909 22 14.279 21.848C14.7716 21.6458 15.1636 21.2562 15.369 20.765C15.463 20.542 15.499 20.282 15.514 19.902C15.534 19.344 15.823 18.828 16.31 18.549C16.5513 18.4149 16.8225 18.3439 17.0985 18.3425C17.3745 18.3411 17.6464 18.4093 17.889 18.541C18.227 18.719 18.472 18.817 18.714 18.849C19.244 18.919 19.78 18.776 20.204 18.453C20.522 18.211 20.757 17.807 21.226 17C21.696 16.193 21.93 15.79 21.983 15.395C22.0174 15.1343 21.9997 14.8693 21.9311 14.6155C21.8624 14.3616 21.7441 14.1239 21.583 13.916C21.435 13.724 21.226 13.563 20.903 13.361C20.426 13.064 20.12 12.558 20.12 12C20.12 11.442 20.426 10.936 20.902 10.64C21.226 10.437 21.435 10.276 21.584 10.084C21.7449 9.87606 21.863 9.63829 21.9315 9.38443C22 9.13057 22.0175 8.86566 21.983 8.605C21.93 8.211 21.696 7.807 21.226 7C20.756 6.193 20.522 5.79 20.204 5.547C19.7789 5.2238 19.2435 5.08148 18.714 5.151C18.472 5.183 18.227 5.281 17.889 5.459C17.6463 5.59083 17.3742 5.65922 17.098 5.65782C16.8218 5.65642 16.5504 5.58528 16.309 5.451C16.0724 5.31166 15.8752 5.11429 15.7361 4.87755C15.597 4.64081 15.5206 4.37251 15.514 4.098C15.499 3.718 15.463 3.458 15.369 3.235C15.2674 2.99174 15.1188 2.77088 14.9318 2.58506C14.7447 2.39923 14.5229 2.25208 14.279 2.152ZM12.5 15C14.17 15 15.523 13.657 15.523 12C15.523 10.343 14.169 9 12.5 9C10.83 9 9.47701 10.343 9.47701 12C9.47701 13.657 10.831 15 12.5 15Z" fill="white"/>
</svg>
