<svg width="24" height="24" viewBox="0 0 24 24" fill="none" xmlns="http://www.w3.org/2000/svg">
<path d="M19.5 6L18.033 7.1C17.6868 7.35964 17.2657 7.5 16.833 7.5H13.475C13.1496 7.50013 12.8322 7.60086 12.5662 7.78839C12.3003 7.97592 12.0988 8.24109 11.9894 8.54756C11.8801 8.85404 11.8681 9.18684 11.9552 9.50038C12.0423 9.81392 12.2242 10.0929 12.476 10.299L14.476 11.935C15.2506 12.5688 15.8544 13.3862 16.2324 14.313C16.6103 15.2397 16.7505 16.2463 16.64 17.241L16.594 17.658C16.5317 18.2179 16.4103 18.7696 16.232 19.304L16 20M2.5 10.5L5.738 9.96C6.05209 9.90757 6.37415 9.9309 6.67741 10.028C6.98067 10.1252 7.25634 10.2933 7.48151 10.5185C7.70668 10.7437 7.87482 11.0193 7.97196 11.3226C8.0691 11.6258 8.09243 11.9479 8.04 12.262L7.905 13.069C7.78781 13.773 7.89939 14.496 8.22336 15.1318C8.54733 15.7677 9.06662 16.283 9.705 16.602C10.2142 16.8568 10.6214 17.2777 10.8592 17.7951C11.097 18.3125 11.1512 18.8956 11.013 19.448L10.5 21.5" stroke="white" stroke-width="2"/>
<path d="M12 21C16.9706 21 21 16.9706 21 12C21 7.02944 16.9706 3 12 3C7.02944 3 3 7.02944 3 12C3 16.9706 7.02944 21 12 21Z" stroke="white" stroke-width="2"/>
</svg>
